<?xml version="1.0" standalone="no"?>
<!DOCTYPE svg PUBLIC "-//W3C//DTD SVG 20010904//EN"
 "http://www.w3.org/TR/2001/REC-SVG-20010904/DTD/svg10.dtd">
<svg version="1.0" xmlns="http://www.w3.org/2000/svg"
 width="2000.000000pt" height="2000.000000pt" viewBox="0 0 2000.000000 2000.000000"
 preserveAspectRatio="xMidYMid meet">

<g transform="translate(0.000000,2000.000000) scale(0.100000,-0.100000)"
fill="#000000" stroke="none">
<path d="M215 19307 c-4 -10 -5 -21 -1 -24 10 -10 18 4 13 24 -4 17 -4 17 -12
0z"/>
<path d="M5196 19235 c-9 -26 -7 -32 5 -12 6 10 9 21 6 23 -2 3 -7 -2 -11 -11z"/>
<path d="M1440 19215 c0 -12 20 -15 120 -15 100 0 120 3 120 15 0 13 -20 15
-120 15 -100 0 -120 -2 -120 -15z"/>
<path d="M233 19120 c0 -41 2 -58 4 -37 2 20 2 54 0 75 -2 20 -4 3 -4 -38z"/>
<path d="M2880 19135 c0 -12 16 -15 80 -15 64 0 80 3 80 15 0 12 -16 15 -80
15 -64 0 -80 -3 -80 -15z"/>
<path d="M320 19085 c0 -19 5 -36 10 -36 6 -1 109 -3 230 -4 121 -1 225 -3
230 -4 6 0 10 -33 10 -75 0 -50 4 -76 13 -79 10 -4 10 -6 0 -6 -7 -1 -13 -8
-13 -16 0 -13 -42 -15 -314 -15 -291 0 -315 1 -320 18 -8 25 3 -389 15 -558 7
-100 7 -146 -1 -148 -11 -4 -14 -51 -4 -76 3 -9 10 -13 15 -10 5 3 9 -8 9 -24
0 -16 2 -45 5 -63 5 -31 4 -32 -6 -11 -7 12 -16 22 -21 22 -4 0 -8 17 -8 39
l0 38 -85 2 -85 2 0 -9040 0 -9041 7688 0 7687 0 19 52 c51 146 149 327 245
453 237 310 592 534 976 615 449 96 932 -3 1305 -268 127 -90 320 -282 403
-403 79 -115 168 -284 199 -380 l22 -69 728 0 728 0 0 7888 0 7889 -107 6
c-218 13 -419 68 -590 162 -60 33 -194 128 -227 160 -9 9 -21 13 -27 9 -8 -5
-9 -3 -5 5 5 8 -12 31 -46 64 -48 46 -132 151 -158 196 -8 14 -11 14 -25 -4
l-17 -20 7 20 c4 11 9 25 12 31 2 6 -3 18 -11 27 -9 9 -16 18 -16 22 0 9 -62
139 -70 145 -6 5 -32 97 -33 117 0 6 -6 9 -12 6 -7 -2 -15 6 -19 19 -10 38 -6
45 9 18 19 -33 18 -27 -4 52 -11 36 -17 69 -14 72 3 3 1 11 -5 18 -6 7 -11 33
-11 58 0 25 -3 54 -5 65 -2 11 -5 26 -5 34 -1 20 -14 5 -18 -20 -2 -12 -8 -29
-13 -38 -7 -11 -9 4 -10 52 0 38 4 67 10 67 13 0 13 77 0 85 -12 7 -21 -14
-24 -50 0 -14 -4 -25 -8 -25 -5 0 -8 -27 -8 -60 l0 -60 -35 0 c-24 0 -35 5
-35 15 0 13 -29 15 -200 15 l-200 0 0 40 0 40 -240 0 c-207 0 -240 -2 -240
-15 0 -13 -24 -15 -160 -15 -136 0 -160 2 -160 15 0 13 -24 15 -160 15 l-160
0 0 95 c0 57 -4 95 -10 95 -6 0 -10 -38 -10 -95 l0 -95 -35 0 -35 0 0 -160 c0
-109 -3 -160 -11 -160 -7 0 -9 26 -5 83 3 45 8 147 11 227 7 169 12 435 7 373
-2 -24 -8 -43 -14 -43 -7 0 -8 26 -3 80 5 56 4 80 -4 80 -7 0 -11 33 -11 98 0
53 -5 153 -11 222 -6 69 -14 170 -18 225 -4 55 -9 88 -9 73 l-2 -28 -80 0
c-79 0 -80 0 -80 25 l0 25 -160 0 -160 0 0 -75 c0 -41 3 -76 8 -76 4 -1 109
-2 234 -3 125 -1 229 -3 231 -6 3 -3 7 -39 10 -80 2 -41 2 -58 0 -37 l-4 37
-240 0 c-206 0 -239 2 -239 15 0 13 -38 15 -279 15 l-279 0 -4 28 -4 27 197 0
198 0 3 77 3 78 -357 0 c-312 0 -358 2 -358 15 0 13 -20 15 -120 15 l-120 0 0
25 0 25 -600 0 c-527 0 -600 2 -600 15 0 13 -20 15 -120 15 l-120 0 0 25 0 25
-315 0 -315 0 0 -66 c0 -43 -4 -63 -11 -59 -6 4 -16 -1 -24 -11 -12 -17 -13
-16 -8 11 3 23 2 27 -6 15 -9 -13 -11 -13 -11 3 0 14 -4 16 -19 7 -16 -8 -21
-6 -25 8 -3 9 -2 -3 1 -27 4 -30 2 -41 -6 -37 -14 9 -14 61 -1 87 9 15 7 19
-7 19 -16 0 -16 2 -3 11 12 8 8 9 -15 6 -26 -4 -27 -3 -12 8 27 20 20 24 -32
22 l-48 -2 28 -17 c16 -10 29 -20 29 -23 0 -8 -54 16 -73 32 -22 21 -32 11
-29 -31 3 -41 -18 -53 -48 -28 -21 17 -20 52 1 52 5 0 9 5 9 10 0 6 -37 10
-90 10 -73 0 -90 3 -90 15 0 13 -20 15 -120 15 l-120 0 0 25 0 25 -440 0 -440
0 -1 -37 c-1 -21 -5 -49 -9 -63 -8 -24 -8 -24 -9 -2 -1 12 -5 22 -11 22 -14 0
-12 78 2 82 6 2 8 10 4 16 -10 17 -26 15 -26 -3 0 -8 -7 -15 -15 -15 -12 0
-15 -11 -14 -54 2 -47 4 -53 20 -49 14 4 19 0 19 -16 0 -11 5 -21 10 -21 6 0
10 -4 10 -10 0 -5 -13 -10 -30 -10 -24 0 -30 4 -31 23 0 13 -2 16 -6 7 -2 -8
-8 -24 -13 -35 -22 -53 -67 -199 -77 -249 -2 -11 -11 -44 -20 -75 -9 -31 -17
-58 -18 -61 -10 -62 -32 -130 -41 -130 -15 0 -24 -36 -12 -48 6 -6 6 -18 -2
-32 -6 -12 -9 -24 -6 -27 3 -3 1 -14 -5 -25 -6 -10 -12 -37 -15 -59 -3 -22 -9
-51 -14 -65 -6 -14 -10 -35 -10 -47 0 -15 -11 -29 -30 -40 -18 -11 -30 -27
-31 -40 0 -12 -5 -31 -10 -42 -7 -15 -8 -9 -4 23 4 30 2 42 -7 42 -7 0 -154 0
-325 0 -274 0 -313 1 -313 15 0 13 -19 15 -120 15 -73 0 -120 4 -120 10 0 6
-18 10 -40 10 -29 0 -40 4 -40 15 0 11 11 15 40 15 l40 0 0 40 0 40 -80 0 -80
0 0 -55 0 -55 -40 0 c-29 0 -40 4 -40 15 0 13 -29 15 -200 15 l-200 0 0 40 0
40 -240 0 c-207 0 -240 -2 -240 -15 0 -13 -29 -15 -200 -15 -171 0 -200 2
-200 15 0 13 -64 15 -520 15 l-520 0 0 25 c0 25 -1 25 -80 25 -47 0 -80 -4
-80 -10 0 -6 -33 -10 -80 -10 l-80 0 0 -37 c0 -24 -3 -33 -9 -25 -4 7 -6 35
-3 63 5 56 -10 66 -25 17 l-10 -33 -15 36 c-9 20 -19 71 -23 113 -4 42 -11 76
-15 76 -7 0 -30 150 -34 216 l-1 30 -255 -2 c-154 -1 -247 2 -235 7 13 6 0 8
-40 5 -33 -3 -51 -2 -40 1 27 8 -106 36 -165 34 -33 -1 -41 1 -30 9 12 7 8 10
-15 10 -16 0 -52 12 -80 26 -27 13 -58 23 -68 20 -9 -2 -14 0 -11 6 3 5 -4 12
-16 15 -12 3 -64 28 -117 54 -52 27 -104 49 -115 49 -12 0 -17 4 -12 12 5 8 2
9 -9 5 -11 -4 -17 -1 -17 8 0 24 -51 31 -67 10 -14 -21 -18 -8 -4 14 13 21
-18 52 -46 45 -13 -4 -23 -2 -23 5 0 6 7 8 15 5 8 -4 15 -1 15 5 0 6 -4 11
-10 11 -5 0 -24 13 -43 29 -23 21 -37 27 -48 20 -25 -16 -33 -10 -13 12 14 16
15 20 4 18 -18 -3 -70 21 -70 33 0 4 5 8 11 8 7 0 -4 12 -23 28 -19 15 -48 43
-66 62 -31 34 -32 34 -38 13 l-6 -23 -274 0 c-237 0 -274 -2 -274 -15 0 -13
-47 -15 -360 -15 -313 0 -360 2 -360 15 0 13 42 15 320 15 278 0 320 2 320 15
0 13 -38 15 -279 15 l-279 0 -4 28 -4 27 518 0 518 0 0 37 c0 21 5 38 10 38 6
0 10 7 10 15 0 12 -16 15 -85 15 -84 0 -85 0 -85 25 l0 25 -560 0 c-491 0
-560 2 -560 15 0 13 -20 15 -120 15 l-120 0 0 25 0 25 -600 0 c-527 0 -600 2
-600 15 0 12 -16 15 -80 15 l-80 0 0 -50 c0 -27 5 -51 10 -51 6 -1 253 -3 550
-4 297 -1 545 -3 550 -4 6 0 10 -33 10 -75 0 -50 4 -76 13 -79 6 -3 -30 -6
-80 -6 -76 -1 -93 2 -93 14 0 13 -33 15 -240 15 l-240 0 0 25 0 25 -440 0
c-384 0 -440 2 -440 15 0 13 -38 15 -279 15 l-279 0 -4 28 -4 27 397 0 398 0
3 77 3 78 -557 0 c-489 0 -558 2 -558 15 0 13 -20 15 -120 15 l-120 0 0 25 0
25 -360 0 -360 0 0 -35z m793 -44 c4 0 7 -34 7 -75 0 -50 4 -76 13 -79 6 -3
-32 -6 -85 -6 l-98 -1 0 73 c0 40 4 77 10 83 8 8 113 11 153 5z m647 -256 c0
-12 -20 -15 -120 -15 -100 0 -120 3 -120 15 0 13 20 15 120 15 100 0 120 -2
120 -15z m400 0 c0 -13 -24 -15 -160 -15 -136 0 -160 2 -160 15 0 13 24 15
160 15 136 0 160 -2 160 -15z m1200 -80 c0 -13 -33 -15 -240 -15 -207 0 -240
2 -240 15 0 13 33 15 240 15 207 0 240 -2 240 -15z m160 0 c0 -11 -11 -15 -40
-15 -29 0 -40 4 -40 15 0 11 11 15 40 15 29 0 40 -4 40 -15z m2110 -76 c0 -6
11 -20 25 -31 14 -11 25 -24 25 -29 0 -17 -35 -9 -50 11 -8 11 -20 20 -27 20
-15 0 -15 2 -7 24 7 18 34 22 34 5z m215 -199 c-3 -5 -12 -10 -18 -10 -7 0 -6
4 3 10 19 12 23 12 15 0z m6308 -29 c4 0 7 -34 7 -75 0 -50 4 -76 13 -79 6 -3
-12 -6 -40 -6 -41 -1 -53 2 -53 14 0 13 -38 15 -280 15 l-280 0 -2 28 c-2 33
1 83 6 97 2 7 113 10 312 9 170 -1 312 -2 317 -3z m797 -63 c0 -5 4 -7 9 -3
14 8 41 -23 41 -46 0 -11 -4 -17 -10 -14 -5 3 -10 16 -10 27 0 12 -3 19 -6 15
-10 -10 7 -68 18 -61 8 5 9 -5 5 -30 -4 -24 -2 -34 5 -30 6 4 8 -1 4 -12 -3
-11 -1 -26 5 -34 10 -13 10 -13 6 0 -2 8 -1 24 4 35 7 18 8 17 8 -7 1 -15 6
-30 11 -33 6 -4 8 -11 4 -16 -3 -5 -10 -7 -15 -4 -5 4 -4 -5 3 -19 6 -14 18
-26 27 -26 14 0 14 -2 1 -10 -11 -7 -11 -10 -2 -10 7 0 10 -5 6 -11 -4 -7 2
-6 17 2 22 11 23 11 11 -4 -11 -13 -10 -15 9 -10 15 4 20 3 15 -5 -4 -7 0 -15
11 -18 10 -3 27 -10 38 -15 17 -8 17 -8 -5 -4 -22 4 -21 3 5 -10 17 -7 38 -11
49 -8 12 3 16 1 11 -7 -4 -7 1 -13 14 -17 12 -3 21 -10 21 -15 0 -5 3 -7 8 -4
4 2 8 -9 9 -26 0 -18 -2 -25 -7 -18 -6 10 -10 9 -16 -2 -5 -9 -25 -20 -44 -27
-58 -20 -145 -76 -148 -97 -2 -10 -11 -24 -19 -31 -8 -7 -12 -17 -7 -24 4 -7
3 -10 -4 -5 -6 4 -11 -1 -12 -11 -7 -115 -17 -154 -31 -132 -6 9 -7 4 -3 -15
5 -21 4 -27 -4 -22 -7 4 -17 -3 -24 -19 -10 -21 -13 -23 -20 -10 -5 8 -17 15
-26 15 -15 0 -15 2 -2 10 8 5 10 10 3 10 -6 0 -9 9 -6 23 3 16 2 18 -5 9 -7
-11 -10 -8 -14 12 -3 15 -1 23 4 19 6 -3 4 5 -3 18 -7 13 -12 30 -11 37 2 6
-2 12 -8 12 -5 0 -10 15 -10 33 l0 32 -19 -24 c-14 -18 -20 -21 -26 -11 -5 8
-4 11 3 6 15 -9 26 32 13 48 -6 7 -8 15 -5 19 3 3 -12 18 -35 32 -29 20 -48
26 -66 21 -18 -5 -27 -2 -31 8 -3 9 -21 21 -40 28 -21 7 -40 24 -49 41 -12 23
-12 28 -1 24 8 -3 19 5 26 18 8 15 18 21 28 18 10 -4 13 -2 8 5 -4 7 -5 12 -2
12 2 0 13 3 23 6 15 5 15 4 3 -5 -8 -6 -10 -11 -5 -11 17 1 45 27 37 35 -4 5
1 5 10 2 12 -4 18 0 20 15 2 12 10 24 18 26 13 5 13 3 1 -11 -8 -11 -9 -17 -3
-17 6 0 19 12 27 28 9 15 14 19 11 9 -4 -11 -2 -16 5 -11 6 3 9 15 6 25 -3 11
-1 17 3 14 15 -10 31 32 21 57 -5 14 -4 38 4 64 12 41 12 42 -11 40 -23 -1
-35 -16 -13 -16 12 0 3 -79 -12 -94 -5 -5 -6 6 -2 27 3 20 0 51 -6 69 -10 28
-9 35 6 46 10 7 28 11 40 9 21 -4 22 -1 35 79 2 13 68 -4 68 -18z m1087 -92
c538 0 984 -2 991 -4 8 -3 12 -28 12 -77 0 -49 4 -75 13 -78 6 -3 -30 -6 -80
-6 -76 -1 -93 -4 -93 -16 0 -13 -24 -15 -160 -15 -136 0 -160 2 -160 15 0 13
24 15 160 15 136 0 160 2 160 15 0 13 -38 15 -280 15 l-280 0 0 25 0 25 -400
0 c-349 0 -400 -2 -400 -15 0 -12 -16 -15 -80 -15 -64 0 -80 3 -80 15 0 11 11
15 40 15 29 0 40 4 40 15 0 13 -26 15 -172 16 -229 2 -233 2 -232 17 1 6 2 24
3 40 1 21 4 23 10 12 8 -13 126 -15 988 -14z m-2357 -22 c0 -11 -22 -14 -119
-14 -105 0 -119 2 -123 18 -4 16 5 17 119 14 99 -3 123 -6 123 -18z m-263 -16
c-3 -7 -5 -2 -5 12 0 14 2 19 5 13 2 -7 2 -19 0 -25z m583 17 c0 -12 -20 -15
-120 -15 -100 0 -120 3 -120 15 0 13 20 15 120 15 100 0 120 -2 120 -15z
m1017 -17 c-3 -8 -6 -5 -6 6 -1 11 2 17 5 13 3 -3 4 -12 1 -19z m263 -64 c0
-13 -14 -15 -95 -12 -64 2 -98 -1 -103 -9 -5 -7 -13 -3 -25 13 l-18 24 121 0
c103 0 120 -2 120 -16z m-6957 -11 c-7 -2 -19 -2 -25 0 -7 3 -2 5 12 5 14 0
19 -2 13 -5z m6504 -35 c-3 -8 -6 -5 -6 6 -1 11 2 17 5 13 3 -3 4 -12 1 -19z
m-6320 6 c-3 -3 -12 -4 -19 -1 -8 3 -5 6 6 6 11 1 17 -2 13 -5z m108 -4 c3 -5
-1 -10 -9 -10 -9 0 -16 5 -16 10 0 6 4 10 9 10 6 0 13 -4 16 -10z m-58 -6 c-3
-3 -12 -4 -19 -1 -8 3 -5 6 6 6 11 1 17 -2 13 -5z m6232 -30 c2 -2 -7 -4 -22
-4 -14 0 -29 5 -32 10 -6 10 42 4 54 -6z m1691 1 c0 -12 -20 -15 -120 -15
-100 0 -120 3 -120 15 0 13 20 15 120 15 100 0 120 -2 120 -15z m-1203 -95 c2
-16 0 -20 -5 -12 -5 7 -17 10 -28 6 -14 -4 -15 -3 -6 4 11 7 11 10 -2 15 -9 4
-24 4 -33 1 -14 -5 -15 -4 -4 4 7 5 27 9 44 8 24 -1 31 -7 34 -26z m2643 15
c0 -12 -20 -15 -120 -15 -100 0 -120 3 -120 15 0 13 20 15 120 15 100 0 120
-2 120 -15z m320 0 c0 -12 -20 -15 -120 -15 -100 0 -120 3 -120 15 0 13 20 15
120 15 100 0 120 -2 120 -15z m-16015 -55 c-3 -5 -1 -10 4 -10 6 0 10 -18 9
-42 -1 -41 -1 -41 -5 -8 -3 19 -9 40 -14 46 -5 6 -6 14 -2 17 10 10 15 8 8 -3z
m12375 -45 c0 -8 -2 -15 -4 -15 -2 0 -6 7 -10 15 -3 8 -1 15 4 15 6 0 10 -7
10 -15z m670 -30 c0 -8 -2 -15 -4 -15 -2 0 -6 7 -10 15 -3 8 -1 15 4 15 6 0
10 -7 10 -15z m-11026 -11 c3 -8 11 -12 17 -8 8 4 9 3 5 -5 -4 -7 -2 -34 4
-61 13 -55 61 -106 89 -95 8 3 12 3 8 -1 -4 -4 7 -15 23 -25 17 -11 30 -23 30
-27 0 -5 -25 -21 -56 -36 -32 -16 -59 -36 -61 -47 -3 -10 -9 -19 -13 -19 -7 0
-12 -19 -26 -89 -4 -22 -23 -36 -32 -25 -5 5 -14 27 -20 49 -17 58 -48 104
-79 116 -59 24 -73 33 -73 46 0 7 7 16 15 19 8 4 12 11 8 17 -4 6 -1 7 6 3 12
-8 90 37 92 52 1 10 6 40 15 87 10 59 35 84 48 49z m10366 12 c0 -3 -4 -8 -10
-11 -5 -3 -10 -1 -10 4 0 6 5 11 10 11 6 0 10 -2 10 -4z m630 -6 c0 -5 -5 -10
-11 -10 -5 0 -7 5 -4 10 3 6 8 10 11 10 2 0 4 -4 4 -10z m-30 -4 c0 -3 -4 -8
-10 -11 -5 -3 -10 -1 -10 4 0 6 5 11 10 11 6 0 10 -2 10 -4z m-30 -20 c0 -11
-19 -15 -25 -6 -3 5 1 10 9 10 9 0 16 -2 16 -4z m-395 -40 l30 -25 -28 3 c-29
3 -50 16 -27 16 9 0 7 5 -6 15 -10 8 -14 14 -9 15 6 0 24 -11 40 -24z m345 14
c-12 -8 -13 -12 -2 -19 11 -7 10 -9 -3 -14 -9 -4 -13 -3 -10 2 3 5 1 12 -4 16
-5 3 -14 -2 -19 -11 -6 -11 -12 -13 -16 -6 -4 6 6 18 21 26 31 17 57 21 33 6z
m50 -10 c0 -5 -7 -7 -15 -4 -8 4 -15 8 -15 10 0 2 7 4 15 4 8 0 15 -4 15 -10z
m-12933 -22 c-3 -8 -6 -5 -6 6 -1 11 2 17 5 13 3 -3 4 -12 1 -19z m2057 -20
c6 -4 7 -10 3 -15 -10 -9 -27 16 -26 37 1 13 1 13 6 0 3 -8 11 -18 17 -22z
m10526 -122 c0 -3 -4 -8 -10 -11 -5 -3 -10 -1 -10 4 0 6 5 11 10 11 6 0 10 -2
10 -4z m-5513 -63 c-3 -10 -5 -4 -5 12 0 17 2 24 5 18 2 -7 2 -21 0 -30z
m5704 -10 c-12 -20 -14 -14 -5 12 4 9 9 14 11 11 3 -2 0 -13 -6 -23z m-5671
-52 c0 -11 -4 -23 -10 -26 -6 -4 -10 5 -10 19 0 14 5 26 10 26 6 0 10 -9 10
-19z m5570 -11 c0 -5 -2 -10 -4 -10 -3 0 -8 5 -11 10 -3 6 -1 10 4 10 6 0 11
-4 11 -10z m-5563 -72 c-3 -8 -6 -5 -6 6 -1 11 2 17 5 13 3 -3 4 -12 1 -19z
m3819 5 c-3 -10 -8 -35 -12 -56 -3 -20 -10 -40 -15 -43 -5 -3 -7 -10 -4 -15 4
-5 1 -9 -4 -9 -17 0 -13 46 4 60 11 9 14 22 9 46 -5 28 -3 34 11 34 11 0 15
-6 11 -17z m-36 -159 c0 -8 -7 -14 -15 -14 -17 0 -18 2 -9 24 7 18 24 12 24
-10z m-80 1 c0 -8 -4 -15 -10 -15 -5 0 -10 7 -10 15 0 8 5 15 10 15 6 0 10 -7
10 -15z m4587 -171 c-3 -3 -12 -4 -19 -1 -8 3 -5 6 6 6 11 1 17 -2 13 -5z
m-420 -10 c-3 -3 -12 -4 -19 -1 -8 3 -5 6 6 6 11 1 17 -2 13 -5z m316 -1 c-7
-2 -21 -2 -30 0 -10 3 -4 5 12 5 17 0 24 -2 18 -5z m94 -9 c-3 -3 -12 -4 -19
-1 -8 3 -5 6 6 6 11 1 17 -2 13 -5z m-630 -10 c-3 -3 -12 -4 -19 -1 -8 3 -5 6
6 6 11 1 17 -2 13 -5z m686 -1 c-7 -2 -19 -2 -25 0 -7 3 -2 5 12 5 14 0 19 -2
13 -5z m-968 -43 c-3 -5 -18 -9 -33 -9 l-27 1 30 8 c17 4 31 8 33 9 2 0 0 -3
-3 -9z m1066 -13 c-10 -9 -11 -8 -5 6 3 10 9 15 12 12 3 -3 0 -11 -7 -18z
m2813 -153 c10 -27 7 -56 -6 -51 -7 2 -13 18 -14 35 -1 34 10 43 20 16z
m-3990 -90 c3 -8 2 -12 -4 -9 -6 3 -10 10 -10 16 0 14 7 11 14 -7z m-329 -94
c3 -5 1 -10 -4 -10 -6 0 -11 5 -11 10 0 6 2 10 4 10 3 0 8 -4 11 -10z m-2605
-188 c17 -72 43 -108 100 -137 27 -14 50 -32 50 -40 0 -8 -19 -24 -42 -36 -59
-29 -85 -62 -99 -125 -9 -41 -17 -54 -30 -54 -13 0 -20 10 -25 35 -3 19 -10
35 -15 35 -5 0 -6 7 -3 15 4 9 -8 29 -30 51 -22 22 -42 34 -51 30 -8 -3 -15
-2 -15 3 0 5 -9 11 -20 14 -33 8 -23 34 23 57 59 31 84 63 98 128 21 96 39
103 59 24z m7151 -155 c-10 -9 -11 -8 -5 6 3 10 9 15 12 12 3 -3 0 -11 -7 -18z
m-16153 -519 c11 -35 32 -101 46 -148 43 -144 70 -173 230 -246 38 -18 80 -41
94 -51 38 -28 18 -52 -85 -97 -169 -76 -190 -101 -238 -281 -28 -103 -49 -155
-64 -155 -19 0 -41 42 -76 150 -20 63 -46 131 -57 150 -24 45 -84 83 -179 115
-78 27 -119 49 -119 66 0 19 48 54 134 98 144 73 168 108 211 300 32 141 40
161 64 161 15 0 24 -14 39 -62z m3753 -628 c16 -9 19 -22 19 -90 0 -92 -4 -90
106 -64 37 8 83 14 103 12 34 -3 36 -5 39 -40 4 -41 0 -43 -141 -73 -42 -10
-79 -20 -81 -24 -2 -3 6 -35 17 -70 24 -75 17 -96 -34 -96 -33 0 -34 1 -58 73
-15 46 -29 72 -39 72 -34 0 -519 -141 -644 -187 -38 -14 -68 -30 -68 -37 0 -6
9 -31 20 -55 24 -51 25 -74 6 -91 -31 -25 -60 -8 -91 57 -16 34 -34 62 -38 62
-13 1 -280 -106 -405 -162 l-113 -51 7 -57 c6 -52 4 -58 -15 -69 -34 -18 -59
-3 -72 41 -7 21 -14 39 -17 39 -3 0 -74 -36 -158 -80 -84 -44 -162 -80 -172
-80 -47 0 -56 57 -15 90 14 11 91 53 170 93 78 40 143 77 143 82 0 6 -16 41
-35 78 -37 71 -42 96 -23 115 36 36 85 -4 130 -106 l23 -51 120 53 c66 29 182
77 258 106 80 31 137 59 137 67 0 7 -9 46 -21 88 -24 90 -17 115 36 115 23 0
35 -5 39 -17 2 -10 14 -50 25 -89 l21 -72 133 44 c156 53 360 113 509 150
l107 26 0 87 c0 76 2 88 21 103 26 21 26 21 51 8z m7053 -6 c12 -12 16 -37 16
-104 l0 -88 93 -22 c115 -27 351 -96 524 -153 113 -37 133 -41 137 -28 48 169
44 161 82 161 50 0 59 -29 34 -119 -11 -39 -20 -76 -20 -83 0 -7 51 -33 113
-57 61 -24 177 -72 256 -107 80 -35 145 -63 146 -61 1 1 10 22 20 46 44 101
97 145 133 109 19 -19 14 -42 -23 -115 -19 -37 -35 -72 -35 -78 0 -5 57 -39
127 -75 179 -92 213 -115 213 -143 0 -29 -17 -47 -45 -47 -11 0 -88 36 -170
80 -83 44 -153 80 -156 80 -3 0 -11 -18 -18 -39 -13 -44 -38 -59 -72 -40 -20
10 -21 17 -16 69 l6 58 -102 45 c-119 54 -402 167 -414 166 -4 0 -21 -28 -38
-62 -31 -65 -60 -82 -91 -57 -19 17 -18 36 8 98 19 46 20 55 8 62 -21 13 -330
112 -470 150 -63 18 -137 38 -164 46 -80 23 -81 22 -108 -58 -23 -71 -24 -73
-57 -73 -52 0 -58 20 -34 101 11 38 20 70 18 72 -1 1 -44 11 -96 21 -52 10
-101 22 -111 26 -20 8 -27 34 -17 63 10 27 51 29 149 7 106 -23 101 -26 99 62
-2 64 1 78 17 90 23 17 39 17 58 -3z m-9557 -1472 c17 -11 39 -77 74 -224 36
-152 25 -145 219 -128 72 6 135 8 139 5 5 -2 12 -25 15 -49 7 -44 89 -378 101
-407 5 -14 -10 -17 -117 -22 -68 -4 -143 -13 -168 -20 l-45 -13 4 -176 c2
-112 -1 -182 -7 -195 -13 -24 -78 -43 -262 -77 -174 -32 -357 -51 -404 -42
-21 4 -42 16 -50 29 -28 44 -77 287 -121 592 -41 292 -48 366 -49 504 l-1 134
50 13 c56 15 322 60 430 73 93 11 177 13 192 3z m12277 -193 c261 -87 356
-130 356 -159 0 -128 -257 -925 -362 -1122 -26 -48 -35 -58 -57 -58 -61 0
-243 53 -421 123 -185 71 -227 93 -234 120 -6 24 17 151 49 270 8 32 15 66 15
77 0 20 -54 50 -130 71 -25 7 -46 13 -47 14 -1 1 11 48 26 106 16 57 41 158
56 224 16 66 31 123 34 127 4 4 47 -4 96 -17 91 -25 141 -31 161 -17 7 4 33
57 58 118 26 62 61 133 77 159 30 47 30 47 72 41 23 -4 136 -38 251 -77z
m-8814 -230 c481 -59 877 -279 1197 -662 125 -150 293 -413 293 -458 0 -53
-42 -186 -89 -285 -162 -339 -445 -589 -787 -697 -170 -54 -233 -62 -474 -62
-192 0 -243 4 -345 23 -222 42 -429 124 -600 237 -321 213 -564 580 -675 1019
-58 230 -79 476 -43 512 58 57 302 180 486 243 184 63 418 116 597 134 82 9
362 6 440 -4z m5660 -13 c141 -24 327 -72 459 -117 147 -51 403 -176 460 -225
l44 -38 -6 -131 c-14 -287 -117 -625 -269 -882 -234 -396 -595 -646 -1065
-735 -161 -31 -521 -33 -653 -4 -286 62 -497 173 -687 363 -148 148 -275 358
-328 539 -34 116 -32 135 17 218 135 230 249 376 417 538 279 269 605 428 991
484 127 18 489 12 620 -10z m-2790 -1631 c90 -20 162 -50 186 -76 16 -18 16
-25 6 -67 -32 -126 -192 -387 -318 -521 l-74 -79 0 -477 0 -478 35 6 c136 22
265 146 315 300 15 47 48 66 85 49 50 -23 39 -99 -33 -221 -118 -202 -352
-298 -597 -246 -176 37 -319 158 -385 325 -26 65 -13 103 35 108 40 3 45 -2
82 -78 39 -80 81 -131 139 -171 48 -33 143 -69 181 -69 l23 0 0 478 0 477 -37
20 c-52 27 -268 244 -326 327 -58 82 -107 183 -107 220 0 64 131 152 275 182
94 21 408 15 515 -9z m6340 -1113 c25 -76 26 -77 82 -107 32 -16 58 -36 58
-42 0 -7 -20 -22 -44 -34 -59 -27 -74 -46 -95 -115 -9 -32 -22 -59 -28 -61 -6
-2 -21 25 -33 61 -23 72 -34 84 -94 107 -58 23 -57 41 7 78 56 32 70 52 82
121 17 95 32 93 65 -8z m-14737 -1568 c364 -83 618 -400 617 -772 -1 -472
-413 -838 -878 -782 -159 19 -282 71 -404 169 -162 130 -257 297 -288 506 -25
163 14 362 97 504 79 133 243 279 375 333 144 58 336 75 481 42z m1955 -111
c6 -16 18 -53 27 -84 18 -66 40 -88 118 -123 36 -15 57 -31 55 -38 -3 -7 -32
-27 -67 -44 -34 -18 -65 -35 -69 -38 -3 -4 -18 -44 -33 -89 -15 -46 -32 -82
-39 -82 -7 0 -23 30 -35 66 -33 97 -39 104 -102 129 -98 39 -100 51 -19 92 63
31 85 57 102 118 37 134 43 142 62 93z m5577 -547 c28 -12 65 -38 84 -57 37
-38 91 -142 91 -177 0 -12 10 -42 21 -65 12 -23 26 -55 30 -71 19 -64 -50
-103 -126 -72 -20 9 -39 16 -41 16 -2 0 -4 -18 -4 -40 0 -52 -18 -89 -47 -96
-27 -7 -48 8 -70 50 l-16 31 -14 -41 c-8 -23 -25 -52 -38 -64 -39 -36 -70 -17
-91 57 -12 43 -26 66 -53 89 -48 41 -90 121 -98 183 -12 101 50 216 139 259
62 30 167 30 233 -2z m-4536 -521 c28 -94 41 -113 97 -139 30 -14 54 -31 54
-38 0 -7 -26 -26 -57 -43 -56 -29 -58 -31 -78 -98 -11 -38 -25 -69 -30 -70 -6
0 -21 30 -35 66 -26 71 -42 87 -102 106 -21 7 -38 19 -38 26 0 8 23 26 51 41
56 31 70 52 89 134 20 86 28 88 49 15z m-259 -986 c406 -50 760 -272 998 -626
135 -200 218 -421 257 -678 15 -104 19 -337 6 -437 -4 -32 -5 -58 -2 -58 4 0
21 9 39 20 52 32 200 87 282 105 105 23 290 30 391 15 46 -6 127 -25 179 -42
363 -116 617 -368 679 -673 l17 -82 37 81 c119 258 324 384 567 347 155 -23
280 -114 340 -246 43 -93 53 -160 45 -299 -19 -335 137 -784 382 -1093 96
-122 230 -250 346 -331 l58 -40 -37 -31 c-119 -98 -290 -140 -445 -111 -161
31 -318 160 -404 333 l-46 92 -122 -120 c-232 -228 -460 -359 -698 -401 -190
-33 -469 -3 -650 71 -80 32 -194 104 -249 155 -24 22 -44 39 -45 38 -1 -2 -7
-127 -14 -278 -31 -736 -107 -1209 -238 -1486 -58 -124 -147 -203 -227 -204
-234 -2 -518 638 -811 1825 -41 165 -93 390 -116 500 -24 110 -44 201 -45 203
-1 2 -39 -34 -85 -80 -138 -136 -247 -188 -410 -196 -254 -12 -468 124 -545
348 -40 115 -49 299 -21 432 1 7 -37 16 -103 25 -605 77 -1044 285 -1291 613
-64 85 -133 225 -159 325 -82 308 14 637 220 758 68 39 182 67 277 67 137 0
253 -47 365 -148 l38 -34 0 163 c0 660 289 1069 820 1163 157 28 283 33 420
15z m11111 -58 c90 -20 248 -78 296 -107 201 -124 327 -254 417 -432 42 -83
83 -218 101 -338 14 -85 16 -142 12 -261 -4 -84 -4 -153 -1 -153 3 0 19 9 35
21 48 34 190 96 260 113 129 32 290 16 379 -37 171 -100 245 -322 195 -584
-43 -226 -148 -417 -317 -578 -268 -255 -664 -427 -1178 -509 l-35 -6 0 -202
c-1 -220 -14 -320 -59 -461 -76 -231 -202 -386 -391 -477 -135 -66 -293 -88
-420 -60 -191 43 -398 255 -490 503 -10 26 -21 47 -25 47 -4 0 -38 -28 -76
-61 -344 -305 -697 -351 -1024 -134 -84 56 -222 192 -285 280 l-47 65 -53 -55
c-196 -201 -416 -351 -670 -460 -390 -166 -782 -187 -1088 -59 -33 14 -70 32
-83 40 l-22 15 43 107 c113 281 228 676 314 1082 34 156 138 597 157 660 42
142 72 170 182 170 156 0 360 -100 476 -232 46 -53 103 -149 115 -197 7 -23
10 -17 30 49 74 244 253 455 465 550 150 67 325 95 549 87 199 -7 258 -19 497
-103 13 -4 15 18 16 158 0 232 26 394 95 608 156 479 532 827 1019 940 147 34
203 39 370 35 106 -3 182 -10 241 -24z m3374 -896 c31 -100 57 -135 123 -163
88 -38 88 -49 -3 -95 -69 -34 -84 -54 -110 -144 -14 -49 -27 -78 -36 -78 -8 0
-25 32 -42 80 -15 44 -36 88 -45 97 -10 10 -44 28 -76 41 -33 12 -61 28 -63
34 -3 7 15 24 39 39 24 15 58 37 75 48 33 21 52 62 69 146 10 51 22 80 33 80
6 0 22 -38 36 -85z m-6235 -4044 c144 -49 291 -166 363 -289 184 -314 95 -698
-209 -901 -308 -206 -739 -106 -930 216 -74 126 -99 229 -92 381 15 290 218
534 507 607 84 22 277 14 361 -14z m-4359 -543 c52 -15 113 -68 138 -121 26
-53 28 -151 5 -205 -46 -111 -175 -172 -292 -137 -68 21 -145 92 -161 150 -56
205 111 373 310 313z"/>
<path d="M12886 18334 c-4 -10 -1 -14 6 -12 15 5 23 28 10 28 -5 0 -13 -7 -16
-16z"/>
<path d="M12881 18294 c0 -11 3 -14 6 -6 3 7 2 16 -1 19 -3 4 -6 -2 -5 -13z"/>
<path d="M12850 18163 c0 -43 9 -39 15 6 2 17 0 31 -5 31 -6 0 -10 -16 -10
-37z"/>
<path d="M12991 17594 c0 -11 3 -14 6 -6 3 7 2 16 -1 19 -3 4 -6 -2 -5 -13z"/>
<path d="M7532 13214 c-38 -20 -81 -66 -118 -130 -32 -55 -104 -219 -104 -237
0 -6 20 -24 43 -38 93 -56 109 -200 30 -271 -33 -30 -94 -50 -134 -44 l-37 6
-15 -68 c-100 -443 -116 -996 -36 -1168 36 -75 94 -103 152 -73 229 117 507
957 507 1529 0 305 -77 480 -220 504 -23 4 -46 1 -68 -10z"/>
<path d="M12232 13219 c-50 -15 -116 -86 -142 -155 -41 -109 -53 -212 -47
-409 8 -263 63 -561 157 -850 169 -519 384 -760 492 -552 38 75 49 144 55 347
7 258 -23 547 -87 848 l-12 53 -34 -7 c-46 -8 -116 19 -148 57 -32 38 -49 99
-40 144 9 50 57 111 97 126 l34 12 -32 83 c-63 161 -130 261 -196 294 -42 22
-49 23 -97 9z"/>
<path d="M9335 8178 c-27 -15 -35 -28 -35 -60 0 -51 78 -86 131 -58 29 16 26
74 -6 105 -26 27 -58 31 -90 13z"/>
<path d="M9151 8081 c-23 -23 -29 -88 -11 -122 15 -27 73 -26 100 3 59 64 -28
180 -89 119z"/>
<path d="M4320 19055 c0 -12 16 -15 80 -15 64 0 80 3 80 15 0 12 -16 15 -80
15 -64 0 -80 -3 -80 -15z"/>
<path d="M180 19026 c0 -12 3 -51 6 -85 6 -49 10 -61 24 -61 15 0 19 13 25 76
4 41 4 78 1 81 -3 4 -6 -12 -6 -35 0 -31 -4 -42 -15 -42 -11 0 -15 12 -15 45
0 25 -4 45 -10 45 -5 0 -10 -11 -10 -24z"/>
<path d="M5311 18954 c0 -11 3 -14 6 -6 3 7 2 16 -1 19 -3 4 -6 -2 -5 -13z"/>
<path d="M5363 18944 c0 -16 4 -20 18 -17 11 3 19 14 19 24 0 11 -7 17 -19 16
-12 -1 -18 -9 -18 -23z"/>
<path d="M240 18895 c0 -13 33 -15 240 -15 207 0 240 2 240 15 0 13 -33 15
-240 15 -207 0 -240 -2 -240 -15z"/>
<path d="M5360 18901 c0 -7 -4 -9 -10 -6 -5 3 -10 1 -10 -4 0 -6 4 -11 9 -11
13 0 25 20 17 27 -3 4 -6 1 -6 -6z"/>
<path d="M5420 18898 c0 -9 7 -19 16 -22 15 -6 15 -4 3 11 -7 10 -15 20 -16
22 -2 2 -3 -3 -3 -11z"/>
<path d="M5460 18830 c5 -11 15 -29 20 -40 14 -28 12 -40 -5 -40 -8 0 -15 -6
-15 -14 0 -8 -6 -17 -12 -19 -7 -3 2 -4 20 -3 18 2 35 6 39 9 3 4 14 2 24 -4
13 -6 19 -6 19 1 0 5 -4 10 -10 10 -5 0 -10 6 -10 13 0 18 -58 107 -70 107 -7
0 -7 -7 0 -20z"/>
<path d="M8280 18599 c0 -5 5 -7 10 -4 6 3 10 8 10 11 0 2 -4 4 -10 4 -5 0
-10 -5 -10 -11z"/>
<path d="M11485 18587 c-4 -10 -5 -21 -1 -24 10 -10 18 4 13 24 -4 17 -4 17
-12 0z"/>
<path d="M12800 18575 c0 -12 16 -15 80 -15 64 0 80 3 80 15 0 12 -16 15 -80
15 -64 0 -80 -3 -80 -15z"/>
<path d="M8205 18500 c-3 -5 -1 -10 4 -10 6 0 11 5 11 10 0 6 -2 10 -4 10 -3
0 -8 -4 -11 -10z"/>
<path d="M14240 18495 c0 -12 16 -15 80 -15 64 0 80 3 80 15 0 12 -16 15 -80
15 -64 0 -80 -3 -80 -15z"/>
<path d="M15600 18415 c0 -12 20 -15 120 -15 100 0 120 3 120 15 0 13 -20 15
-120 15 -100 0 -120 -2 -120 -15z"/>
<path d="M16803 18360 c0 -25 2 -35 4 -22 2 12 2 32 0 45 -2 12 -4 2 -4 -23z"/>
<path d="M13040 18351 c0 -5 7 -14 15 -21 12 -10 15 -10 15 3 0 8 -7 17 -15
21 -8 3 -15 2 -15 -3z"/>
<path d="M7912 18300 c0 -14 2 -19 5 -12 2 6 2 18 0 25 -3 6 -5 1 -5 -13z"/>
<path d="M7660 18176 c0 -2 7 -7 16 -10 8 -3 12 -2 9 4 -6 10 -25 14 -25 6z"/>
<path d="M6408 18163 c7 -3 16 -2 19 1 4 3 -2 6 -13 5 -11 0 -14 -3 -6 -6z"/>
<path d="M7618 18163 c6 -2 18 -2 25 0 6 3 1 5 -13 5 -14 0 -19 -2 -12 -5z"/>
<path d="M7500 18140 c0 -5 5 -10 11 -10 5 0 7 5 4 10 -3 6 -8 10 -11 10 -2 0
-4 -4 -4 -10z"/>
<path d="M7587 18142 c-9 -2 -15 -8 -12 -13 8 -12 55 -12 55 0 0 12 -21 18
-43 13z"/>
<path d="M7390 18121 c-23 -7 -23 -8 -5 -13 11 -3 29 -9 40 -13 20 -6 20 -6 0
6 -19 12 -19 12 0 20 25 10 -1 10 -35 0z"/>
<path d="M7660 18110 c0 -5 5 -10 11 -10 5 0 7 5 4 10 -3 6 -8 10 -11 10 -2 0
-4 -4 -4 -10z"/>
<path d="M7348 18083 c7 -3 16 -2 19 1 4 3 -2 6 -13 5 -11 0 -14 -3 -6 -6z"/>
<path d="M7280 18015 c0 -10 10 -15 30 -15 20 0 30 5 30 15 0 10 -10 15 -30
15 -20 0 -30 -5 -30 -15z"/>
<path d="M18960 17992 c0 -12 19 -26 26 -19 2 2 -2 10 -11 17 -9 8 -15 8 -15
2z"/>
<path d="M18915 17930 c-3 -5 -2 -10 4 -10 5 0 13 5 16 10 3 6 2 10 -4 10 -5
0 -13 -4 -16 -10z"/>
<path d="M7280 17805 c0 -41 26 -60 62 -46 13 6 17 10 11 10 -8 1 -13 15 -13
36 0 32 -2 35 -30 35 -28 0 -30 -3 -30 -35z"/>
<path d="M7840 17775 c0 -12 20 -15 120 -15 100 0 120 3 120 15 0 13 -20 15
-120 15 -100 0 -120 -2 -120 -15z"/>
<path d="M7520 17720 l0 -40 80 0 80 0 0 40 0 40 -80 0 -80 0 0 -40z"/>
<path d="M9280 17695 c0 -12 20 -15 120 -15 100 0 120 3 120 15 0 13 -20 15
-120 15 -100 0 -120 -2 -120 -15z"/>
<path d="M11200 17670 c0 -11 2 -20 4 -20 2 0 6 9 9 20 3 11 1 20 -4 20 -5 0
-9 -9 -9 -20z"/>
<path d="M10720 17625 c0 -25 1 -25 80 -25 79 0 80 0 80 25 0 25 -1 25 -80 25
-79 0 -80 0 -80 -25z"/>
<path d="M11192 17610 c0 -14 2 -19 5 -12 2 6 2 18 0 25 -3 6 -5 1 -5 -13z"/>
<path d="M11120 17504 c0 -17 22 -14 28 4 2 7 -3 12 -12 12 -9 0 -16 -7 -16
-16z"/>
<path d="M18644 17465 c2 -16 2 -42 -1 -56 -4 -21 -9 -25 -29 -21 -13 2 -21 8
-18 13 8 14 -6 10 -22 -5 -8 -8 -14 -30 -14 -48 1 -30 2 -31 12 -13 16 29 16
29 33 15 11 -9 15 -34 16 -89 1 -42 3 -65 5 -51 3 14 9 43 15 64 8 29 8 45 -2
62 -8 16 -9 27 -2 36 18 22 24 73 13 99 -10 23 -10 23 -6 -6z"/>
<path d="M18656 17363 c-6 -14 -5 -15 5 -6 7 7 10 15 7 18 -3 3 -9 -2 -12 -12z"/>
<path d="M18587 17250 c3 -11 7 -20 9 -20 2 0 4 9 4 20 0 11 -4 20 -9 20 -5 0
-7 -9 -4 -20z"/>
<path d="M17760 17215 c0 -12 20 -15 120 -15 100 0 120 3 120 15 0 13 -20 15
-120 15 -100 0 -120 -2 -120 -15z"/>
</g>
</svg>
